<?xml version="1.0" encoding="utf-8"?>
<svg xmlns="http://www.w3.org/2000/svg" style="margin: auto; background: none; display: block; shape-rendering: auto;" width="535" height="517" preserveAspectRatio="xMidYMid">
<style type="text/css">
  text {
    text-anchor: middle; font-size: 186px; opacity: 0;
  }
</style>
<g style="transform-origin: 267.5px 258.5px; transform: scale(2.325);">
<g transform="translate(267.5,258.5) scale(2)">
  <g>
  <animateTransform attributeName="transform" type="rotate" values="0;90" keyTimes="0;1" dur="1s" repeatCount="indefinite"></animateTransform>
  <g transform="translate(-50,-50)">
  <line x1="50" y1="10" x2="50" y2="21.8" stroke-width="3" stroke="#00bcb4" stroke-linecap="round"></line>
  <line x1="30" y1="15.4" x2="35.9" y2="25.6" stroke-width="3" stroke="#00bcb4" stroke-linecap="round"></line>
  <line x1="15.4" y1="30" x2="25.6" y2="35.9" stroke-width="3" stroke="#00bcb4" stroke-linecap="round"></line>
  <line x1="10" y1="50" x2="21.8" y2="50" stroke-width="3" stroke="#00bcb4" stroke-linecap="round"></line>
  <line x1="15.4" y1="70" x2="25.6" y2="64.1" stroke-width="3" stroke="#00bcb4" stroke-linecap="round"></line>
  <line x1="30" y1="84.6" x2="35.9" y2="74.4" stroke-width="3" stroke="#00bcb4" stroke-linecap="round"></line>
  <line x1="50" y1="90" x2="50" y2="78.2" stroke-width="3" stroke="#00bcb4" stroke-linecap="round"></line>
  <line x1="70" y1="84.6" x2="64.1" y2="74.4" stroke-width="3" stroke="#00bcb4" stroke-linecap="round"></line>
  <line x1="84.6" y1="70" x2="74.4" y2="64.1" stroke-width="3" stroke="#00bcb4" stroke-linecap="round"></line>
  <line x1="90" y1="50" x2="78.2" y2="50" stroke-width="3" stroke="#00bcb4" stroke-linecap="round"></line>
  <line x1="84.6" y1="30" x2="74.4" y2="35.9" stroke-width="3" stroke="#00bcb4" stroke-linecap="round"></line>
  <line x1="70" y1="15.4" x2="64.1" y2="25.6" stroke-width="3" stroke="#00bcb4" stroke-linecap="round"></line>
</g>
  </g>
</g>

<g transform="translate(267.5,258.5)">
  <g transform="translate(0,0)"><g class="path" style="transform: matrix(1, 0, 0, 1, 0, 0); transform-origin: -68.8799px -2.74674px; animation: 1s linear -0.565714s infinite normal forwards running bounce-eee9b88f-5d45-410b-a121-3f11bdac010b;"><path d="M9.60-12.08L9.60-12.08L9.60-3.92L9.60-3.92Q9.60 0.32 6.80 0.32L6.80 0.32L6.80 0.32Q3.92 0.32 3.92-3.60L3.92-3.60L4-28.48L4-28.48Q4-34.32 10.48-34.32L10.48-34.32L24.24-34.32L24.24-34.32Q30.32-34.32 30.32-28.96L30.32-28.96L30.32-21.52L30.32-21.52Q30.32-15.84 24.08-15.84L24.08-15.84L14.08-15.84L14.08-15.84Q9.60-15.84 9.60-12.08zM19.84-31.20L19.84-31.20L14.40-31.20L14.40-31.20Q9.60-31.20 9.60-25.92L9.60-25.92L9.60-23.60L9.60-23.60Q9.60-18.96 14.32-18.96L14.32-18.96L19.92-18.96L19.92-18.96Q24.72-18.96 24.72-24.56L24.72-24.56L24.72-26.88L24.72-26.88Q24.72-31.20 19.84-31.20" fill="#c4e86b" stroke="none" stroke-width="none" transform="translate(-85.99994564056396,14.25325669969831)" style="fill: rgb(255, 71, 71);"></path></g><g class="path" style="transform: matrix(1, 0, 0, 1, 0, 0); transform-origin: -40.1999px -3.30674px; animation: 1s linear -0.471429s infinite normal forwards running bounce-eee9b88f-5d45-410b-a121-3f11bdac010b;"><path d="M49.76-3.76L49.76-17.52L49.76-17.52Q49.76-22 46.32-22L46.32-22L45.28-22L45.28-22Q42.08-22 42.08-17.20L42.08-17.20L42.08-3.76L42.08-3.76Q42.08 0.48 39.28 0.48L39.28 0.48L39.28 0.48Q36.24 0.48 36.24-3.44L36.24-3.44L36.24-31.84L36.24-31.84Q36.24-35.60 39.28-35.60L39.28-35.60L39.28-35.60Q42.08-35.60 42.08-31.44L42.08-31.44L42.08-28.56L42.08-28.56Q42.08-24.80 46.72-24.80L46.72-24.80L49.28-24.80L49.28-24.80Q52.32-24.80 53.84-23.36L53.84-23.36L53.84-23.36Q55.36-21.92 55.36-19.36L55.36-19.36L55.36-3.28L55.36-3.28Q55.36 0.48 52.56 0.48L52.56 0.48L52.56 0.48Q49.76 0.48 49.76-3.76L49.76-3.76" fill="#c4e86b" stroke="none" stroke-width="none" transform="translate(-85.99994564056396,14.25325669969831)" style="fill: rgb(0, 188, 180);"></path></g><g class="path" style="transform: matrix(1, 0, 0, 1, 0, 0); transform-origin: -13.3199px 1.77326px; animation: 1s linear -0.377143s infinite normal forwards running bounce-eee9b88f-5d45-410b-a121-3f11bdac010b;"><path d="M82.24-19.28L82.24-5.52L82.24-5.52Q82.24-2.56 80.68-1.28L80.68-1.28L80.68-1.28Q79.12 0 76.16 0L76.16 0L69.52 0L69.52 0Q63.12 0 63.12-5.52L63.12-5.52L63.12-19.36L63.12-19.36Q63.12-21.92 64.64-23.44L64.64-23.44L64.64-23.44Q66.16-24.96 69.36-24.96L69.36-24.96L76.16-24.96L76.16-24.96Q79.12-24.96 80.68-23.44L80.68-23.44L80.68-23.44Q82.24-21.92 82.24-19.28L82.24-19.28zM76.48-7.60L76.48-7.60L76.48-17.36L76.48-17.36Q76.48-22.08 73.12-22.08L73.12-22.08L72.08-22.08L72.08-22.08Q68.96-22.08 68.96-16.96L68.96-16.96L68.96-7.52L68.96-7.52Q68.96-2.72 72.16-2.72L72.16-2.72L73.36-2.72L73.36-2.72Q76.48-2.72 76.48-7.60" fill="#c4e86b" stroke="none" stroke-width="none" transform="translate(-85.99994564056396,14.25325669969831)" style="fill: rgb(196, 232, 107);"></path></g><g class="path" style="transform: matrix(1, 0, 0, 1, 0, 0); transform-origin: 11.5201px -3.74674px; animation: 1s linear -0.282857s infinite normal forwards running bounce-eee9b88f-5d45-410b-a121-3f11bdac010b;"><path d="M92.80-36L92.80-36L92.80-36Q95.60-36 95.60-31.84L95.60-31.84L95.60-29.20L95.60-29.20Q95.60-24.96 100.24-24.96L100.24-24.96L101.76-24.96L101.76-24.96Q104.96-24.96 104.96-23.60L104.96-23.60L104.96-23.60Q104.96-22.16 101.76-22.16L101.76-22.16L100.24-22.16L100.24-22.16Q95.60-22.16 95.60-16.56L95.60-16.56L95.60-7.76L95.60-7.76Q95.60-3.04 100.16-3.04L100.16-3.04L102.08-3.04L102.08-3.04Q105.20-3.04 105.20-1.52L105.20-1.52L105.20-1.52Q105.20 0 102.32 0L102.32 0L95.68 0L95.68 0Q89.84 0 89.84-5.84L89.84-5.84L89.84-32.24L89.84-32.24Q89.84-36 92.80-36" fill="#c4e86b" stroke="none" stroke-width="none" transform="translate(-85.99994564056396,14.25325669969831)" style="fill: rgb(255, 133, 71);"></path></g><g class="path" style="transform: matrix(1, 0, 0, 1, 0, 0); transform-origin: 33.48px 1.77326px; animation: 1s linear -0.188571s infinite normal forwards running bounce-eee9b88f-5d45-410b-a121-3f11bdac010b;"><path d="M129.04-19.28L129.04-5.52L129.04-5.52Q129.04-2.56 127.48-1.28L127.48-1.28L127.48-1.28Q125.92 0 122.96 0L122.96 0L116.32 0L116.32 0Q109.92 0 109.92-5.52L109.92-5.52L109.92-19.36L109.92-19.36Q109.92-21.92 111.44-23.44L111.44-23.44L111.44-23.44Q112.96-24.96 116.16-24.96L116.16-24.96L122.96-24.96L122.96-24.96Q125.92-24.96 127.48-23.44L127.48-23.44L127.48-23.44Q129.04-21.92 129.04-19.28L129.04-19.28zM123.28-7.60L123.28-7.60L123.28-17.36L123.28-17.36Q123.28-22.08 119.92-22.08L119.92-22.08L118.88-22.08L118.88-22.08Q115.76-22.08 115.76-16.96L115.76-16.96L115.76-7.52L115.76-7.52Q115.76-2.72 118.96-2.72L118.96-2.72L120.16-2.72L120.16-2.72Q123.28-2.72 123.28-7.60" fill="#c4e86b" stroke="none" stroke-width="none" transform="translate(-85.99994564056396,14.25325669969831)" style="fill: rgb(255, 71, 71);"></path></g><g class="path" style="transform: matrix(1, 0, 0, 1, 0, 0); transform-origin: 58.5601px 1.93326px; animation: 1s linear -0.0942857s infinite normal forwards running bounce-eee9b88f-5d45-410b-a121-3f11bdac010b;"><path d="M149.36-22.16L149.36-22.16L146.88-22.16L146.88-22.16Q142.48-22.16 142.48-18L142.48-18L142.48-3.84L142.48-3.84Q142.48 0.32 139.68 0.32L139.68 0.32L139.68 0.32Q136.64 0.32 136.64-3.36L136.64-3.36L136.64-19.44L136.64-19.44Q136.64-24.96 143.12-24.96L143.12-24.96L149.44-24.96L149.44-24.96Q152.48-24.96 152.48-23.52L152.48-23.52L152.48-23.52Q152.48-22.16 149.36-22.16" fill="#c4e86b" stroke="none" stroke-width="none" transform="translate(-85.99994564056396,14.25325669969831)" style="fill: rgb(0, 188, 180);"></path></g><g class="path" style="transform: matrix(1, 0, 0, 1, 0, 0); transform-origin: 80.3201px 6.29326px; animation: 1s linear 0s infinite normal forwards running bounce-eee9b88f-5d45-410b-a121-3f11bdac010b;"><path d="M170.16-7.44L170.16-7.44L170.16-21.28L170.16-21.28Q170.16-25.36 173.12-25.36L173.12-25.36L173.12-25.36Q175.92-25.36 175.92-21.36L175.92-21.36L175.92 3.84L175.92 3.84Q175.92 9.44 170.40 9.44L170.40 9.44L159.52 9.44L159.52 9.44Q158.40 9.44 157.88 9.16L157.88 9.16L157.88 9.16Q157.36 8.88 157.36 8L157.36 8L157.36 8Q157.36 6.56 159.92 6.56L159.92 6.56L168.16 6.56L168.16 6.56Q171.12 6.56 171.12 3.36L171.12 3.36L171.12 3.36Q171.12 0 167.76 0L167.76 0L162.96 0L162.16 0L162.16 0Q156.72 0 156.72-5.44L156.72-5.44L156.72-21.68L156.72-21.68Q156.72-25.36 159.52-25.36L159.52-25.36L159.52-25.36Q162.56-25.36 162.56-21.20L162.56-21.20L162.56-7.36L162.56-7.36Q162.56-2.80 165.84-2.80L165.84-2.80L166.96-2.80L166.96-2.80Q170.16-2.80 170.16-7.44" fill="#c4e86b" stroke="none" stroke-width="none" transform="translate(-85.99994564056396,14.25325669969831)" style="fill: rgb(196, 232, 107);"></path></g></g>
</g>
</g>
<style id="bounce-eee9b88f-5d45-410b-a121-3f11bdac010b" data-anikit="">@keyframes bounce-eee9b88f-5d45-410b-a121-3f11bdac010b
{
  0% {
    animation-timing-function: cubic-bezier(0.1361,0.2514,0.2175,0.8786);
    transform: translate(0,0px) scaleY(1);
  }
  37% {
    animation-timing-function: cubic-bezier(0.7674,0.1844,0.8382,0.7157);
    transform: translate(0,-39.96px) scaleY(1);
  }
  72% {
    animation-timing-function: cubic-bezier(0.1118,0.2149,0.2172,0.941);
    transform: translate(0,0px) scaleY(1);
  }
  87% {
    animation-timing-function: cubic-bezier(0.7494,0.2259,0.8209,0.6963);
    transform: translate(0,19.900000000000002px) scaleY(0.602);
  }
  100% {
    transform: translate(0,0px) scaleY(1);
  }
}</style></svg>