<?xml version="1.0" encoding="utf-8"?>
<svg xmlns="http://www.w3.org/2000/svg" xmlns:xlink="http://www.w3.org/1999/xlink" style="margin: auto; background: none; display: block; z-index: 1; position: relative; shape-rendering: auto;" width="3000" height="338" preserveAspectRatio="xMidYMid" viewBox="0 0 3000 338">
<g transform=""><path d="M-100 227.77C-47.48 237.65 -48.38 224.46 3.23 224.46S56.51 230.4 106.45 230.4S158.87 234.25 209.68 234.25S262.52 233.43 312.9 233.43S365.46 228.61 416.13 228.61S468.94 234.09 519.35 234.09S571.05 240.69 622.58 240.69S674.25 228.77 725.81 228.77S778.88 240.41 829.03 240.41S882.42 228.71 932.26 228.71S984.2 237.14 1035.48 237.14S1087.49 223.5 1138.71 223.5S1190.83 240.97 1241.94 240.97S1295.27 237.22 1345.16 237.22S1398.23 226.53 1448.39 226.53S1500.18 238.11 1551.61 238.11S1603.64 225.44 1654.84 225.44S1708.21 234.79 1758.06 234.79S1811.17 231.23 1861.29 231.23S1914.53 229.32 1964.52 229.32S2016.57 235.16 2067.74 235.16S2120.07 229.46 2170.97 229.46S2223.71 223.5 2274.19 223.5S2326.99 224.68 2377.42 224.68S2429.93 223.83 2480.65 223.83S2533.6 235.31 2583.87 235.31S2636.8 230.18 2687.1 230.18S2738.96 234.72 2790.32 234.72S2843.63 228.74 2893.55 228.74S2945.8 236.3 2996.77 236.3S3048.63 230.13 3100 230.13S3152.8 227.43 3203.23 227.43L3100 338 L-100 338 Z" fill="#00bcb4" stroke-width="0">
  <animate attributeName="d" dur="6.25s" repeatCount="indefinite" values="M-100 227.77C-47.48 237.65 -48.38 224.46 3.23 224.46S56.51 230.4 106.45 230.4S158.87 234.25 209.68 234.25S262.52 233.43 312.9 233.43S365.46 228.61 416.13 228.61S468.94 234.09 519.35 234.09S571.05 240.69 622.58 240.69S674.25 228.77 725.81 228.77S778.88 240.41 829.03 240.41S882.42 228.71 932.26 228.71S984.2 237.14 1035.48 237.14S1087.49 223.5 1138.71 223.5S1190.83 240.97 1241.94 240.97S1295.27 237.22 1345.16 237.22S1398.23 226.53 1448.39 226.53S1500.18 238.11 1551.61 238.11S1603.64 225.44 1654.84 225.44S1708.21 234.79 1758.06 234.79S1811.17 231.23 1861.29 231.23S1914.53 229.32 1964.52 229.32S2016.57 235.16 2067.74 235.16S2120.07 229.46 2170.97 229.46S2223.71 223.5 2274.19 223.5S2326.99 224.68 2377.42 224.68S2429.93 223.83 2480.65 223.83S2533.6 235.31 2583.87 235.31S2636.8 230.18 2687.1 230.18S2738.96 234.72 2790.32 234.72S2843.63 228.74 2893.55 228.74S2945.8 236.3 2996.77 236.3S3048.63 230.13 3100 230.13S3152.8 227.43 3203.23 227.43L3100 338 L-100 338 Z;M-100 240.08C-47.95 227.81 -48.18 236.77 3.23 236.77S56.18 225.18 106.45 225.18S159 239.52 209.68 239.52S261.78 233.73 312.9 233.73S365.61 233.21 416.13 233.21S468.33 224.9 519.35 224.9S572.34 234.38 622.58 234.38S675.75 228.31 725.81 228.31S779.22 225.96 829.03 225.96S881.69 237.56 932.26 237.56S984.12 235.38 1035.48 235.38S1087.66 235.51 1138.71 235.51S1191.68 229.21 1241.94 229.21S1295.28 236.36 1345.16 236.36S1397.4 236.68 1448.39 236.68S1501.73 238.59 1551.61 238.59S1604.36 225.35 1654.84 225.35S1706.7 233.54 1758.06 233.54S1810.5 237.47 1861.29 237.47S1914.3 233.31 1964.52 233.31S2016.43 232.38 2067.74 232.38S2119.78 230.81 2170.97 230.81S2224.32 226.2 2274.19 226.2S2327.16 235.44 2377.42 235.44S2429.13 229.36 2480.65 229.36S2533.61 237.55 2583.87 237.55S2637.28 239.14 2687.1 239.14S2740.28 224.26 2790.32 224.26S2843.28 228.24 2893.55 228.24S2946.17 226.41 2996.77 226.41S3049.66 231.76 3100 231.76S3151.91 225.82 3203.23 225.82L3100 338 L-100 338 Z;M-100 227.77C-47.48 237.65 -48.38 224.46 3.23 224.46S56.51 230.4 106.45 230.4S158.87 234.25 209.68 234.25S262.52 233.43 312.9 233.43S365.46 228.61 416.13 228.61S468.94 234.09 519.35 234.09S571.05 240.69 622.58 240.69S674.25 228.77 725.81 228.77S778.88 240.41 829.03 240.41S882.42 228.71 932.26 228.71S984.2 237.14 1035.48 237.14S1087.49 223.5 1138.71 223.5S1190.83 240.97 1241.94 240.97S1295.27 237.22 1345.16 237.22S1398.23 226.53 1448.39 226.53S1500.18 238.11 1551.61 238.11S1603.64 225.44 1654.84 225.44S1708.21 234.79 1758.06 234.79S1811.17 231.23 1861.29 231.23S1914.53 229.32 1964.52 229.32S2016.57 235.16 2067.74 235.16S2120.07 229.46 2170.97 229.46S2223.71 223.5 2274.19 223.5S2326.99 224.68 2377.42 224.68S2429.93 223.83 2480.65 223.83S2533.6 235.31 2583.87 235.31S2636.8 230.18 2687.1 230.18S2738.96 234.72 2790.32 234.72S2843.63 228.74 2893.55 228.74S2945.8 236.3 2996.77 236.3S3048.63 230.13 3100 230.13S3152.8 227.43 3203.23 227.43L3100 338 L-100 338 Z"></animate>
  <animateTransform attributeName="transform" type="translate" dur="6.25s" begin="0s" repeatCount="indefinite" values="0;10;0" calcMode="spline" keySplines="0.3 0 0.7 1;0.3 0 0.7 1"></animateTransform>
</path><path d="M-100 231.45C-42.44 239.24 -41.75 242.92 12.94 242.92S69.57 238.5 125.88 238.5S183.37 244.53 238.82 244.53S295.59 238.67 351.76 238.67S408.63 244.16 464.71 244.16S522.48 238.03 577.65 238.03S634.22 257.37 690.59 257.37S747.33 239.82 803.53 239.82S861.15 256.25 916.47 256.25S974.4 231.64 1029.41 231.64S1087.41 254.15 1142.35 254.15S1200.06 235.31 1255.29 235.31S1313.32 252.02 1368.24 252.02S1425.35 239.59 1481.18 239.59S1539.27 243.77 1594.12 243.77S1651.28 224.47 1707.06 224.47S1764.35 257.59 1820 257.59S1877.76 229.68 1932.94 229.68S1990.98 248.97 2045.88 248.97S2102.79 238.43 2158.82 238.43S2216.45 248.52 2271.76 248.52S2330 231.48 2384.71 231.48S2441.4 256.09 2497.65 256.09S2555.02 223.65 2610.59 223.65S2667.83 247.16 2723.53 247.16S2780.07 225.04 2836.47 225.04S2893.88 243.39 2949.41 243.39S3007.12 223.47 3062.35 223.47S3120.46 245.3 3175.29 245.3L3100 338 L-100 338 Z" fill="#7bd3cf" stroke-width="0">
  <animate attributeName="d" dur="4.166666666666667s" repeatCount="indefinite" values="M-100 231.45C-42.44 239.24 -41.75 242.92 12.94 242.92S69.57 238.5 125.88 238.5S183.37 244.53 238.82 244.53S295.59 238.67 351.76 238.67S408.63 244.16 464.71 244.16S522.48 238.03 577.65 238.03S634.22 257.37 690.59 257.37S747.33 239.82 803.53 239.82S861.15 256.25 916.47 256.25S974.4 231.64 1029.41 231.64S1087.41 254.15 1142.35 254.15S1200.06 235.31 1255.29 235.31S1313.32 252.02 1368.24 252.02S1425.35 239.59 1481.18 239.59S1539.27 243.77 1594.12 243.77S1651.28 224.47 1707.06 224.47S1764.35 257.59 1820 257.59S1877.76 229.68 1932.94 229.68S1990.98 248.97 2045.88 248.97S2102.79 238.43 2158.82 238.43S2216.45 248.52 2271.76 248.52S2330 231.48 2384.71 231.48S2441.4 256.09 2497.65 256.09S2555.02 223.65 2610.59 223.65S2667.83 247.16 2723.53 247.16S2780.07 225.04 2836.47 225.04S2893.88 243.39 2949.41 243.39S3007.12 223.47 3062.35 223.47S3120.46 245.3 3175.29 245.3L3100 338 L-100 338 Z;M-100 234.24C-43.52 231.99 -42.38 253.94 12.94 253.94S71.1 241.25 125.88 241.25S182.56 245.1 238.82 245.1S295.62 256.34 351.76 256.34S408.59 252.3 464.71 252.3S522.33 225.99 577.65 225.99S635.13 255.55 690.59 255.55S748.81 233.09 803.53 233.09S861.27 247.66 916.47 247.66S973.86 226.84 1029.41 226.84S1086.71 245.56 1142.35 245.56S1199.66 231.15 1255.29 231.15S1312.49 243.04 1368.24 243.04S1425.05 237.71 1481.18 237.71S1538.25 243.05 1594.12 243.05S1651.87 232.18 1707.06 232.18S1764.02 246.82 1820 246.82S1877.09 237.69 1932.94 237.69S1990.73 239.98 2045.88 239.98S2103.38 237.01 2158.82 237.01S2217.02 243.87 2271.76 243.87S2329.8 230.41 2384.71 230.41S2441.38 249.06 2497.65 249.06S2554.76 239.48 2610.59 239.48S2667.9 242.8 2723.53 242.8S2780.13 231.76 2836.47 231.76S2893.95 257.35 2949.41 257.35S3006.32 230.28 3062.35 230.28S3120.46 225.79 3175.29 225.79L3100 338 L-100 338 Z;M-100 231.45C-42.44 239.24 -41.75 242.92 12.94 242.92S69.57 238.5 125.88 238.5S183.37 244.53 238.82 244.53S295.59 238.67 351.76 238.67S408.63 244.16 464.71 244.16S522.48 238.03 577.65 238.03S634.22 257.37 690.59 257.37S747.33 239.82 803.53 239.82S861.15 256.25 916.47 256.25S974.4 231.64 1029.41 231.64S1087.41 254.15 1142.35 254.15S1200.06 235.31 1255.29 235.31S1313.32 252.02 1368.24 252.02S1425.35 239.59 1481.18 239.59S1539.27 243.77 1594.12 243.77S1651.28 224.47 1707.06 224.47S1764.35 257.59 1820 257.59S1877.76 229.68 1932.94 229.68S1990.98 248.97 2045.88 248.97S2102.79 238.43 2158.82 238.43S2216.45 248.52 2271.76 248.52S2330 231.48 2384.71 231.48S2441.4 256.09 2497.65 256.09S2555.02 223.65 2610.59 223.65S2667.83 247.16 2723.53 247.16S2780.07 225.04 2836.47 225.04S2893.88 243.39 2949.41 243.39S3007.12 223.47 3062.35 223.47S3120.46 245.3 3175.29 245.3L3100 338 L-100 338 Z"></animate>
  <animateTransform attributeName="transform" type="translate" dur="4.166666666666667s" begin="-1.388888888888889s" repeatCount="indefinite" values="0;10;0" calcMode="spline" keySplines="0.3 0 0.7 1;0.3 0 0.7 1"></animateTransform>
</path><path d="M-100 240.81C-36.4 227.49 -36.5 259.43 24.68 259.43S87.73 226.74 149.35 226.74S213.09 268.91 274.03 268.91S336.96 227.88 398.7 227.88S462.46 262.25 523.38 262.25S587.49 224.29 648.05 224.29S712.07 260.61 772.73 260.61S835.18 263.97 897.4 263.97S961.25 263.59 1022.08 263.59S1085.62 227.19 1146.75 227.19S1210.69 265.86 1271.43 265.86S1335.28 223.64 1396.1 223.64S1458.82 261.08 1520.78 261.08S1584.62 236.91 1645.45 236.91S1709.53 268.91 1770.13 268.91S1832.59 234.74 1894.81 234.74S1957.15 226.8 2019.48 226.8S2082.56 225.64 2144.16 225.64S2206.87 267.02 2268.83 267.02S2331.56 237.52 2393.51 237.52S2456.72 272.16 2518.18 272.16S2580.54 239.12 2642.86 239.12S2706.93 258.97 2767.53 258.97S2830.68 234.18 2892.21 234.18S2955.89 258.22 3016.88 258.22S3079.83 230.82 3141.56 230.82L3100 338 L-100 338 Z" fill="#bde9e8" stroke-width="0">
  <animate attributeName="d" dur="2.0833333333333335s" repeatCount="indefinite" values="M-100 240.81C-36.4 227.49 -36.5 259.43 24.68 259.43S87.73 226.74 149.35 226.74S213.09 268.91 274.03 268.91S336.96 227.88 398.7 227.88S462.46 262.25 523.38 262.25S587.49 224.29 648.05 224.29S712.07 260.61 772.73 260.61S835.18 263.97 897.4 263.97S961.25 263.59 1022.08 263.59S1085.62 227.19 1146.75 227.19S1210.69 265.86 1271.43 265.86S1335.28 223.64 1396.1 223.64S1458.82 261.08 1520.78 261.08S1584.62 236.91 1645.45 236.91S1709.53 268.91 1770.13 268.91S1832.59 234.74 1894.81 234.74S1957.15 226.8 2019.48 226.8S2082.56 225.64 2144.16 225.64S2206.87 267.02 2268.83 267.02S2331.56 237.52 2393.51 237.52S2456.72 272.16 2518.18 272.16S2580.54 239.12 2642.86 239.12S2706.93 258.97 2767.53 258.97S2830.68 234.18 2892.21 234.18S2955.89 258.22 3016.88 258.22S3079.83 230.82 3141.56 230.82L3100 338 L-100 338 Z;M-100 231.78C-36.01 228.38 -35.93 269.52 24.68 269.52S87.1 228.49 149.35 228.49S212.74 272.02 274.03 272.02S337.75 227.15 398.7 227.15S461.52 264.15 523.38 264.15S587.05 231.41 648.05 231.41S711.19 269.23 772.73 269.23S836.41 227.2 897.4 227.2S959.79 268.73 1022.08 268.73S1085.53 234.49 1146.75 234.49S1210.2 269.36 1271.43 269.36S1334.61 225.33 1396.1 225.33S1458.71 273.28 1520.78 273.28S1583.69 236.37 1645.45 236.37S1709.35 265.43 1770.13 265.43S1833.71 228.25 1894.81 228.25S1957.89 261.3 2019.48 261.3S2082.3 223.15 2144.16 223.15S2208.24 223.79 2268.83 223.79S2332.01 236.65 2393.51 236.65S2456.9 269.15 2518.18 269.15S2582.11 234.11 2642.86 234.11S2705.95 261.66 2767.53 261.66S2830.81 223.79 2892.21 223.79S2955.16 265.39 3016.88 265.39S3080.91 225.37 3141.56 225.37L3100 338 L-100 338 Z;M-100 240.81C-36.4 227.49 -36.5 259.43 24.68 259.43S87.73 226.74 149.35 226.74S213.09 268.91 274.03 268.91S336.96 227.88 398.7 227.88S462.46 262.25 523.38 262.25S587.49 224.29 648.05 224.29S712.07 260.61 772.73 260.61S835.18 263.97 897.4 263.97S961.25 263.59 1022.08 263.59S1085.62 227.19 1146.75 227.19S1210.69 265.86 1271.43 265.86S1335.28 223.64 1396.1 223.64S1458.82 261.08 1520.78 261.08S1584.62 236.91 1645.45 236.91S1709.53 268.91 1770.13 268.91S1832.59 234.74 1894.81 234.74S1957.15 226.8 2019.48 226.8S2082.56 225.64 2144.16 225.64S2206.87 267.02 2268.83 267.02S2331.56 237.52 2393.51 237.52S2456.72 272.16 2518.18 272.16S2580.54 239.12 2642.86 239.12S2706.93 258.97 2767.53 258.97S2830.68 234.18 2892.21 234.18S2955.89 258.22 3016.88 258.22S3079.83 230.82 3141.56 230.82L3100 338 L-100 338 Z"></animate>
  <animateTransform attributeName="transform" type="translate" dur="2.0833333333333335s" begin="-1.388888888888889s" repeatCount="indefinite" values="0;10;0" calcMode="spline" keySplines="0.3 0 0.7 1;0.3 0 0.7 1"></animateTransform>
</path></g>
</svg>