<?xml version="1.0" encoding="utf-8"?><svg xmlns="http://www.w3.org/2000/svg" xmlns:xlink="http://www.w3.org/1999/xlink" width="1996" height="1221" preserveAspectRatio="xMidYMid" viewBox="0 0 1996 1221" style="z-index:1;margin-right:-2px;display:block;background-repeat-y:initial;background-repeat-x:initial;animation-play-state:paused" ><g transform="" style="animation-play-state:paused" ><path d="M -100 827.03 C -13.77 830.05 -15.51 829.87 68.92 829.87 S 154.02 818.28 237.85 818.28 S 322.36 817.58 406.77 817.58 S 492.44 829.27 575.69 829.27 S 661.94 823.82 744.62 823.82 S 829.52 807.43 913.54 807.43 S 998.83 825.58 1082.46 825.58 S 1167.91 827.4 1251.38 827.4 S 1338.2 830.15 1420.31 830.15 S 1506.19 812.11 1589.23 812.11 S 1675.69 820.14 1758.15 820.14 S 1844.01 808.55 1927.08 808.55 S 2012.08 811.77 2096 811.77 S 2181.54 829.79 2264.92 829.79 L 2096 1221 L -100 1221 Z" fill="#00bcb4" stroke-width="0" transform="matrix(1,0,0,1,0,0)" style="transform:matrix(1, 0, 0, 1, 0, 0);animation-play-state:paused" ></path>
<path d="M -100 824.71 C -5.7 807.06 -7.07 873.43 85.58 873.43 S 179.84 817.94 271.15 817.94 S 365.26 858.2 456.73 858.2 S 551.8 817.87 642.31 817.87 S 737.46 866.02 827.89 866.02 S 921.93 863 1013.46 863 S 1106.76 856.07 1199.04 856.07 S 1293.09 822.64 1384.62 822.64 S 1477.97 871.49 1570.2 871.49 S 1664.08 825.09 1755.77 825.09 S 1850.78 868.25 1941.35 868.25 S 2035.79 808.97 2126.93 808.97 L 2096 1221 L -100 1221 Z" fill="#7bd3cf" stroke-width="0" transform="matrix(1,0,0,1,7.311387538909912,0)" style="transform:matrix(1, 0, 0, 1, 7.31139, 0);animation-play-state:paused" ></path>
<path d="M -100 809.01 C 4.63 812.27 5.31 927.99 105.87 927.99 S 210.48 811.51 311.75 811.51 S 416.14 928.04 517.62 928.04 S 622.95 829.72 723.5 829.72 S 828.68 925.37 929.37 925.37 S 1034.61 814.83 1135.25 814.83 S 1239.69 913.91 1341.12 913.91 S 1445.69 809.63 1547 809.63 S 1650.37 915.95 1752.87 915.95 S 1856.78 814.84 1958.75 814.84 S 2064.04 907.93 2164.62 907.93 L 2096 1221 L -100 1221 Z" fill="#bde9e8" stroke-width="0" transform="matrix(1,0,0,1,7.311385154724121,0)" style="transform:matrix(1, 0, 0, 1, 7.31139, 0);animation-play-state:paused" ></path></g></svg>